<svg width="291" height="323" viewBox="0 0 291 323" fill="none" xmlns="http://www.w3.org/2000/svg">
<path fill-rule="evenodd" clip-rule="evenodd" d="M153.109 0.00178299C119.989 -0.28983 99.7993 35.257 74.7067 56.7998C52.1263 76.1858 26.2741 92.2121 14.1185 119.33C1.05759 148.468 -5.0345 181.981 5.01192 212.282C15.0349 242.513 39.6968 266.201 67.8218 281.307C93.6708 295.19 124.18 286.804 153.109 291.825C190.973 298.398 233.666 339.817 263.113 315.206C293.399 289.895 257.672 238.953 263.062 199.932C267.007 171.376 296.534 148.083 290.082 119.984C283.527 91.4384 252.583 77.5051 230.512 58.1716C205.632 36.3776 186.235 0.293443 153.109 0.00178299Z" fill="#F2994A" fill-opacity="0.1"/>
</svg>
