<svg width="246" height="273" viewBox="0 0 246 273" fill="none" xmlns="http://www.w3.org/2000/svg">
<path fill-rule="evenodd" clip-rule="evenodd" d="M116.567 0.00150727C144.566 -0.245011 161.634 29.8049 182.846 48.0163C201.935 64.4045 223.789 77.9525 234.065 100.877C245.106 125.509 250.256 153.84 241.763 179.455C233.29 205.011 212.442 225.036 188.666 237.806C166.814 249.542 141.023 242.453 116.567 246.698C84.5593 252.254 48.4681 287.268 23.5745 266.463C-2.02806 245.066 28.1741 202.001 23.6173 169.015C20.2825 144.875 -4.67808 125.184 0.776238 101.43C6.31712 77.2985 32.4761 65.5197 51.1342 49.176C72.1669 30.7522 88.5645 0.248065 116.567 0.00150727Z" fill="#F2994A" fill-opacity="0.1"/>
</svg>
