<svg width="15" height="15" viewBox="0 0 15 15" fill="none" xmlns="http://www.w3.org/2000/svg">
<path fill-rule="evenodd" clip-rule="evenodd" d="M7.50001 6.9231L4.61541 0.0962043H5.8975L7.50006 3.2821L9.10262 0.0962043H10.3846L7.50001 6.9231ZM7.59265 6.10352e-05C7.20717 6.10352e-05 6.89467 0.344456 6.89467 0.769289C6.89467 1.19412 7.20717 1.53852 7.59265 1.53852C7.97814 1.53852 8.29063 1.19412 8.29063 0.769289C8.29063 0.344456 7.97814 6.10352e-05 7.59265 6.10352e-05ZM0.0961995 10.3846L6.9231 7.50002L0.0961995 4.61542V5.8974L3.28217 7.5L0.0961995 9.10259V10.3846ZM0.769228 8.10536C0.344395 8.10536 0 7.79286 0 7.40737C0 7.02189 0.344395 6.70939 0.769228 6.70939C1.19406 6.70939 1.53846 7.02189 1.53846 7.40738C1.53846 7.79286 1.19406 8.10536 0.769228 8.10536ZM10.3845 14.9038L7.49992 8.07694L4.61534 14.9038H5.8973L7.49984 11.718L9.10239 14.9038H10.3845ZM8.10527 14.2308C8.10527 14.6556 7.79277 15 7.40729 15C7.02181 15 6.70931 14.6556 6.70931 14.2308C6.70931 13.8059 7.02181 13.4615 7.40729 13.4615C7.79277 13.4615 8.10527 13.8059 8.10527 14.2308ZM14.9038 4.61543L8.07685 7.50003L14.9038 10.3846V9.10266L11.7177 7.50005L14.9038 5.89744V4.61543ZM14.2307 6.89469C14.6556 6.89469 14.9999 7.20719 14.9999 7.59268C14.9999 7.97816 14.6556 8.29066 14.2307 8.29066C13.8059 8.29066 13.4615 7.97816 13.4615 7.59268C13.4615 7.20719 13.8059 6.89469 14.2307 6.89469Z" fill="#F26D3D"/>
</svg>
