<svg width="185" height="93" viewBox="0 0 185 93" fill="none" xmlns="http://www.w3.org/2000/svg">
<path d="M49.6035 35.1973H50.5C51.3379 35.1973 51.9648 35.0332 52.3809 34.7051C52.7969 34.3711 53.0049 33.8877 53.0049 33.2549C53.0049 32.6162 52.8291 32.1445 52.4775 31.8398C52.1318 31.5352 51.5869 31.3828 50.8428 31.3828H49.6035V35.1973ZM55.7559 33.1582C55.7559 34.541 55.3223 35.5986 54.4551 36.3311C53.5938 37.0635 52.3662 37.4297 50.7725 37.4297H49.6035V42H46.8789V29.1504H50.9834C52.542 29.1504 53.7256 29.4873 54.5342 30.1611C55.3486 30.8291 55.7559 31.8281 55.7559 33.1582ZM63.4551 31.9893C63.8184 31.9893 64.1201 32.0156 64.3604 32.0684L64.1582 34.582C63.9414 34.5234 63.6777 34.4941 63.3672 34.4941C62.5117 34.4941 61.8438 34.7139 61.3633 35.1533C60.8887 35.5928 60.6514 36.208 60.6514 36.999V42H57.9707V32.1738H60.001L60.3965 33.8262H60.5283C60.833 33.2754 61.2432 32.833 61.7588 32.499C62.2803 32.1592 62.8457 31.9893 63.4551 31.9893Z" fill="#455D73"/>
<path d="M82.0752 31.1738H85.0107L86.8652 36.7021C87.0234 37.1826 87.1318 37.751 87.1904 38.4072H87.2432C87.3076 37.8037 87.4336 37.2354 87.6211 36.7021L89.4404 31.1738H92.3145L88.1572 42.2568C87.7764 43.2822 87.2314 44.0498 86.5225 44.5596C85.8193 45.0693 84.9961 45.3242 84.0527 45.3242C83.5898 45.3242 83.1357 45.2744 82.6904 45.1748V43.0479C83.0127 43.124 83.3643 43.1621 83.7451 43.1621C84.2197 43.1621 84.6328 43.0156 84.9844 42.7227C85.3418 42.4355 85.6201 41.999 85.8193 41.4131L85.9775 40.9297L82.0752 31.1738ZM97.7988 32.8965C97.2305 32.8965 96.7852 33.0781 96.4629 33.4414C96.1406 33.7988 95.9561 34.3086 95.9092 34.9707H99.6709C99.6592 34.3086 99.4863 33.7988 99.1523 33.4414C98.8184 33.0781 98.3672 32.8965 97.7988 32.8965ZM98.1768 41.1758C96.5947 41.1758 95.3584 40.7393 94.4678 39.8662C93.5771 38.9932 93.1318 37.7568 93.1318 36.1572C93.1318 34.5107 93.542 33.2393 94.3623 32.3428C95.1885 31.4404 96.3281 30.9893 97.7812 30.9893C99.1699 30.9893 100.251 31.3848 101.024 32.1758C101.798 32.9668 102.185 34.0596 102.185 35.4541V36.7549H95.8477C95.877 37.5166 96.1025 38.1113 96.5244 38.5391C96.9463 38.9668 97.5381 39.1807 98.2998 39.1807C98.8916 39.1807 99.4512 39.1191 99.9785 38.9961C100.506 38.873 101.057 38.6768 101.631 38.4072V40.4814C101.162 40.7158 100.661 40.8887 100.128 41C99.5947 41.1172 98.9443 41.1758 98.1768 41.1758ZM108.354 41.1758C105.296 41.1758 103.767 39.4971 103.767 36.1396C103.767 34.4697 104.183 33.1953 105.015 32.3164C105.847 31.4316 107.039 30.9893 108.592 30.9893C109.729 30.9893 110.748 31.2119 111.65 31.6572L110.859 33.7314C110.438 33.5615 110.045 33.4238 109.682 33.3184C109.318 33.207 108.955 33.1514 108.592 33.1514C107.197 33.1514 106.5 34.1416 106.5 36.1221C106.5 38.0439 107.197 39.0049 108.592 39.0049C109.107 39.0049 109.585 38.9375 110.024 38.8027C110.464 38.6621 110.903 38.4453 111.343 38.1523V40.4463C110.909 40.7217 110.47 40.9121 110.024 41.0176C109.585 41.123 109.028 41.1758 108.354 41.1758ZM117.768 39.04C118.236 39.04 118.799 38.9375 119.455 38.7324V40.7275C118.787 41.0264 117.967 41.1758 116.994 41.1758C115.922 41.1758 115.14 40.9062 114.647 40.3672C114.161 39.8223 113.918 39.0078 113.918 37.9238V33.1865H112.635V32.0527L114.111 31.1562L114.885 29.082H116.599V31.1738H119.35V33.1865H116.599V37.9238C116.599 38.3047 116.704 38.5859 116.915 38.7676C117.132 38.9492 117.416 39.04 117.768 39.04ZM127.69 41L127.172 39.6641H127.102C126.65 40.2324 126.185 40.6279 125.704 40.8506C125.229 41.0674 124.608 41.1758 123.841 41.1758C122.897 41.1758 122.153 40.9062 121.608 40.3672C121.069 39.8281 120.8 39.0605 120.8 38.0645C120.8 37.0215 121.163 36.2539 121.89 35.7617C122.622 35.2637 123.724 34.9883 125.194 34.9355L126.899 34.8828V34.4521C126.899 33.4561 126.39 32.958 125.37 32.958C124.585 32.958 123.662 33.1953 122.602 33.6699L121.714 31.8594C122.845 31.2676 124.099 30.9717 125.476 30.9717C126.794 30.9717 127.805 31.2588 128.508 31.833C129.211 32.4072 129.562 33.2803 129.562 34.4521V41H127.69ZM126.899 36.4473L125.862 36.4824C125.083 36.5059 124.503 36.6465 124.122 36.9043C123.741 37.1621 123.551 37.5547 123.551 38.082C123.551 38.8379 123.984 39.2158 124.852 39.2158C125.473 39.2158 125.968 39.0371 126.337 38.6797C126.712 38.3223 126.899 37.8477 126.899 37.2559V36.4473Z" fill="#455D73"/>
<path d="M36.3205 57.203C36.3205 58.0706 36.0363 58.7356 35.468 59.1978C34.8996 59.6601 34.0907 59.8912 33.0412 59.8912H32.1773V63H30.819V54.6909H33.2117C34.2498 54.6909 35.0266 54.9031 35.5418 55.3275C36.0609 55.7518 36.3205 56.377 36.3205 57.203ZM32.1773 58.7488H32.8991C33.5962 58.7488 34.1077 58.6276 34.4336 58.3851C34.7594 58.1426 34.9224 57.7637 34.9224 57.2484C34.9224 56.771 34.7765 56.4149 34.4847 56.18C34.193 55.945 33.7383 55.8276 33.1207 55.8276H32.1773V58.7488ZM43.4133 59.8457C43.4133 60.8725 43.15 61.6739 42.6233 62.2498C42.0967 62.8257 41.3635 63.1137 40.4239 63.1137C39.8366 63.1137 39.3175 62.9811 38.8666 62.7158C38.4157 62.4506 38.069 62.0698 37.8266 61.5735C37.5841 61.0771 37.4628 60.5012 37.4628 59.8457C37.4628 58.8265 37.7243 58.0308 38.2471 57.4587C38.77 56.8866 39.5069 56.6005 40.458 56.6005C41.3673 56.6005 42.0872 56.8942 42.6176 57.4815C43.1481 58.0649 43.4133 58.853 43.4133 59.8457ZM38.8382 59.8457C38.8382 61.2969 39.3743 62.0225 40.4466 62.0225C41.5075 62.0225 42.0379 61.2969 42.0379 59.8457C42.0379 58.4097 41.5037 57.6917 40.4352 57.6917C39.8745 57.6917 39.4672 57.8774 39.2133 58.2487C38.9632 58.62 38.8382 59.1524 38.8382 59.8457ZM47.295 62.0338C47.6209 62.0338 47.9467 61.9827 48.2726 61.8804V62.8863C48.1248 62.9507 47.9335 63.0038 47.6986 63.0455C47.4674 63.0909 47.2268 63.1137 46.9768 63.1137C45.7113 63.1137 45.0785 62.4468 45.0785 61.1131V57.7258H44.2203V57.1348L45.1411 56.646L45.5957 55.3161H46.4198V56.7142H48.2101V57.7258H46.4198V61.0904C46.4198 61.4124 46.4994 61.6511 46.6585 61.8065C46.8214 61.958 47.0336 62.0338 47.295 62.0338ZM52.2794 63.1137C51.3018 63.1137 50.5365 62.8295 49.9833 62.2612C49.4339 61.689 49.1592 60.9028 49.1592 59.9026C49.1592 58.8758 49.4149 58.0687 49.9264 57.4815C50.4379 56.8942 51.1408 56.6005 52.035 56.6005C52.8647 56.6005 53.5202 56.8525 54.0014 57.3564C54.4826 57.8603 54.7232 58.5537 54.7232 59.4365V60.1583H50.5346C50.5535 60.7683 50.7183 61.2382 51.029 61.5678C51.3397 61.8936 51.7773 62.0566 52.3419 62.0566C52.7132 62.0566 53.058 62.0225 53.3762 61.9543C53.6983 61.8823 54.0431 61.7648 54.4106 61.6019V62.6874C54.0848 62.8428 53.7551 62.9526 53.4217 63.0171C53.0883 63.0815 52.7075 63.1137 52.2794 63.1137ZM52.035 57.6122C51.6106 57.6122 51.2696 57.7467 51.012 58.0157C50.7581 58.2847 50.6066 58.6769 50.5573 59.1921H53.4103C53.4028 58.6731 53.2777 58.2809 53.0352 58.0157C52.7928 57.7467 52.4593 57.6122 52.035 57.6122ZM61.7706 63H60.4293V59.1353C60.4293 58.6503 60.3308 58.2885 60.1338 58.0498C59.9405 57.8111 59.6317 57.6917 59.2074 57.6917C58.6428 57.6917 58.2298 57.8584 57.9684 58.1919C57.707 58.5253 57.5763 59.0842 57.5763 59.8685V63H56.2407V56.7142H57.2864L57.474 57.5383H57.5422C57.7316 57.239 58.0006 57.0078 58.3492 56.8449C58.6978 56.682 59.0842 56.6005 59.5086 56.6005C61.0166 56.6005 61.7706 57.3678 61.7706 58.9023V63ZM66.1638 63.1137C65.2128 63.1137 64.4891 62.8371 63.9928 62.2839C63.5002 61.7269 63.2539 60.9294 63.2539 59.8912C63.2539 58.8341 63.5116 58.0214 64.0269 57.453C64.546 56.8847 65.2943 56.6005 66.2718 56.6005C66.9349 56.6005 67.5316 56.7237 68.0621 56.9699L67.6585 58.0441C67.094 57.8243 66.628 57.7145 66.2604 57.7145C65.173 57.7145 64.6293 58.4363 64.6293 59.8798C64.6293 60.5846 64.7638 61.115 65.0328 61.4712C65.3056 61.8235 65.7035 61.9997 66.2263 61.9997C66.8212 61.9997 67.3839 61.852 67.9143 61.5564V62.7215C67.6756 62.8617 67.4198 62.9621 67.147 63.0227C66.878 63.0834 66.5503 63.1137 66.1638 63.1137ZM70.7276 63H69.392V56.7142H70.7276V63ZM69.3124 55.049C69.3124 54.8103 69.3768 54.6265 69.5056 54.4977C69.6383 54.3689 69.8258 54.3044 70.0683 54.3044C70.3032 54.3044 70.4851 54.3689 70.6139 54.4977C70.7465 54.6265 70.8128 54.8103 70.8128 55.049C70.8128 55.2763 70.7465 55.4563 70.6139 55.5889C70.4851 55.7177 70.3032 55.7821 70.0683 55.7821C69.8258 55.7821 69.6383 55.7177 69.5056 55.5889C69.3768 55.4563 69.3124 55.2763 69.3124 55.049ZM76.5758 63L76.3086 62.1248H76.2632C75.9601 62.5074 75.655 62.7689 75.3481 62.9091C75.0412 63.0455 74.6472 63.1137 74.166 63.1137C73.5484 63.1137 73.0653 62.947 72.7167 62.6135C72.372 62.2801 72.1996 61.8084 72.1996 61.1984C72.1996 60.5505 72.4402 60.0617 72.9213 59.7321C73.4025 59.4024 74.1357 59.2225 75.1208 59.1921L76.2063 59.158V58.8227C76.2063 58.4211 76.1116 58.1218 75.9222 57.9248C75.7365 57.7239 75.4467 57.6235 75.0526 57.6235C74.7306 57.6235 74.4218 57.6709 74.1262 57.7656C73.8307 57.8603 73.5465 57.9721 73.2737 58.1009L72.8418 57.1461C73.1828 56.9681 73.556 56.8335 73.9614 56.7426C74.3668 56.6479 74.7495 56.6005 75.1094 56.6005C75.9089 56.6005 76.5113 56.7748 76.9168 57.1234C77.326 57.472 77.5306 58.0195 77.5306 58.7659V63H76.5758ZM74.5866 62.0907C75.0716 62.0907 75.4599 61.9562 75.7517 61.6871C76.0472 61.4143 76.195 61.0336 76.195 60.5448V59.9992L75.3879 60.0333C74.759 60.056 74.3005 60.1621 74.0126 60.3516C73.7284 60.5372 73.5863 60.8233 73.5863 61.2097C73.5863 61.4901 73.6697 61.708 73.8364 61.8633C74.0031 62.0149 74.2531 62.0907 74.5866 62.0907ZM80.7303 63H79.3947V54.1567H80.7303V63ZM85.3907 63.1137C84.4131 63.1137 83.6478 62.8295 83.0946 62.2612C82.5452 61.689 82.2705 60.9028 82.2705 59.9026C82.2705 58.8758 82.5262 58.0687 83.0377 57.4815C83.5492 56.8942 84.2521 56.6005 85.1463 56.6005C85.976 56.6005 86.6315 56.8525 87.1127 57.3564C87.5939 57.8603 87.8345 58.5537 87.8345 59.4365V60.1583H83.6459C83.6648 60.7683 83.8296 61.2382 84.1403 61.5678C84.451 61.8936 84.8886 62.0566 85.4532 62.0566C85.8245 62.0566 86.1693 62.0225 86.4875 61.9543C86.8096 61.8823 87.1544 61.7648 87.5219 61.6019V62.6874C87.1961 62.8428 86.8664 62.9526 86.533 63.0171C86.1996 63.0815 85.8188 63.1137 85.3907 63.1137ZM85.1463 57.6122C84.7219 57.6122 84.3809 57.7467 84.1233 58.0157C83.8694 58.2847 83.7178 58.6769 83.6686 59.1921H86.5216C86.5141 58.6731 86.389 58.2809 86.1465 58.0157C85.904 57.7467 85.5706 57.6122 85.1463 57.6122ZM93.5747 61.2097C93.5747 61.8235 93.3512 62.2953 92.9041 62.6249C92.457 62.9507 91.8166 63.1137 90.9831 63.1137C90.1457 63.1137 89.4732 62.9867 88.9655 62.7329V61.5792C89.7043 61.9202 90.392 62.0907 91.0286 62.0907C91.8507 62.0907 92.2618 61.8425 92.2618 61.3461C92.2618 61.187 92.2164 61.0544 92.1254 60.9483C92.0345 60.8422 91.8848 60.7323 91.6765 60.6187C91.4681 60.505 91.1782 60.3762 90.8069 60.2322C90.0832 59.9518 89.5926 59.6714 89.3349 59.3911C89.0811 59.1107 88.9541 58.7469 88.9541 58.2999C88.9541 57.7618 89.1701 57.3451 89.602 57.0495C90.0378 56.7502 90.6288 56.6005 91.3752 56.6005C92.1141 56.6005 92.8131 56.7502 93.4724 57.0495L93.0405 58.0555C92.3623 57.7751 91.792 57.6349 91.3298 57.6349C90.625 57.6349 90.2727 57.8357 90.2727 58.2373C90.2727 58.4344 90.3636 58.6011 90.5455 58.7375C90.7311 58.8739 91.1327 59.0614 91.7503 59.3001C92.2694 59.5009 92.6464 59.6847 92.8813 59.8514C93.1162 60.0181 93.2905 60.2114 93.4042 60.4311C93.5179 60.6471 93.5747 60.9066 93.5747 61.2097Z" fill="#F26D3D"/>
<path d="M104.743 63H103.379V59.2547H99.5479V63H98.1896V54.6909H99.5479V58.0896H103.379V54.6909H104.743V63ZM111.222 63L111.034 62.1759H110.966C110.78 62.4677 110.515 62.6969 110.17 62.8636C109.829 63.0303 109.439 63.1137 108.999 63.1137C108.238 63.1137 107.669 62.9242 107.294 62.5453C106.919 62.1664 106.732 61.5924 106.732 60.8233V56.7142H108.079V60.5903C108.079 61.0714 108.177 61.4333 108.374 61.6758C108.571 61.9145 108.88 62.0338 109.301 62.0338C109.861 62.0338 110.272 61.8671 110.534 61.5337C110.799 61.1965 110.932 60.6338 110.932 59.8457V56.7142H112.273V63H111.222ZM119.474 63H118.133V59.1239C118.133 58.6428 118.042 58.2847 117.86 58.0498C117.678 57.8111 117.394 57.6917 117.007 57.6917C116.492 57.6917 116.113 57.8603 115.871 58.1976C115.632 58.531 115.512 59.0879 115.512 59.8685V63H114.177V56.7142H115.223L115.41 57.5383H115.478C115.653 57.239 115.905 57.0078 116.234 56.8449C116.568 56.682 116.933 56.6005 117.331 56.6005C118.297 56.6005 118.938 56.9302 119.252 57.5894H119.343C119.529 57.2787 119.79 57.0363 120.127 56.862C120.465 56.6877 120.851 56.6005 121.287 56.6005C122.037 56.6005 122.583 56.79 122.924 57.1689C123.268 57.5478 123.441 58.1256 123.441 58.9023V63H122.105V59.1239C122.105 58.6428 122.012 58.2847 121.827 58.0498C121.645 57.8111 121.361 57.6917 120.974 57.6917C120.455 57.6917 120.074 57.8547 119.832 58.1805C119.593 58.5026 119.474 58.9989 119.474 59.6695V63ZM129.238 63L128.971 62.1248H128.925C128.622 62.5074 128.317 62.7689 128.01 62.9091C127.703 63.0455 127.309 63.1137 126.828 63.1137C126.21 63.1137 125.727 62.947 125.379 62.6135C125.034 62.2801 124.862 61.8084 124.862 61.1984C124.862 60.5505 125.102 60.0617 125.583 59.7321C126.065 59.4024 126.798 59.2225 127.783 59.1921L128.868 59.158V58.8227C128.868 58.4211 128.774 58.1218 128.584 57.9248C128.399 57.7239 128.109 57.6235 127.715 57.6235C127.393 57.6235 127.084 57.6709 126.788 57.7656C126.493 57.8603 126.209 57.9721 125.936 58.1009L125.504 57.1461C125.845 56.9681 126.218 56.8335 126.623 56.7426C127.029 56.6479 127.412 56.6005 127.772 56.6005C128.571 56.6005 129.173 56.7748 129.579 57.1234C129.988 57.472 130.193 58.0195 130.193 58.7659V63H129.238ZM127.249 62.0907C127.734 62.0907 128.122 61.9562 128.414 61.6871C128.709 61.4143 128.857 61.0336 128.857 60.5448V59.9992L128.05 60.0333C127.421 60.056 126.963 60.1621 126.675 60.3516C126.39 60.5372 126.248 60.8233 126.248 61.2097C126.248 61.4901 126.332 61.708 126.498 61.8633C126.665 62.0149 126.915 62.0907 127.249 62.0907ZM137.587 63H136.245V59.1353C136.245 58.6503 136.147 58.2885 135.95 58.0498C135.757 57.8111 135.448 57.6917 135.023 57.6917C134.459 57.6917 134.046 57.8584 133.785 58.1919C133.523 58.5253 133.392 59.0842 133.392 59.8685V63H132.057V56.7142H133.103L133.29 57.5383H133.358C133.548 57.239 133.817 57.0078 134.165 56.8449C134.514 56.682 134.9 56.6005 135.325 56.6005C136.833 56.6005 137.587 57.3678 137.587 58.9023V63ZM145.021 59.8457C145.021 60.8725 144.757 61.6739 144.231 62.2498C143.704 62.8257 142.971 63.1137 142.031 63.1137C141.444 63.1137 140.925 62.9811 140.474 62.7158C140.023 62.4506 139.676 62.0698 139.434 61.5735C139.191 61.0771 139.07 60.5012 139.07 59.8457C139.07 58.8265 139.331 58.0308 139.854 57.4587C140.377 56.8866 141.114 56.6005 142.065 56.6005C142.975 56.6005 143.694 56.8942 144.225 57.4815C144.755 58.0649 145.021 58.853 145.021 59.8457ZM140.445 59.8457C140.445 61.2969 140.982 62.0225 142.054 62.0225C143.115 62.0225 143.645 61.2969 143.645 59.8457C143.645 58.4097 143.111 57.6917 142.042 57.6917C141.482 57.6917 141.074 57.8774 140.821 58.2487C140.57 58.62 140.445 59.1524 140.445 59.8457ZM150.783 61.2097C150.783 61.8235 150.56 62.2953 150.113 62.6249C149.666 62.9507 149.025 63.1137 148.192 63.1137C147.355 63.1137 146.682 62.9867 146.174 62.7329V61.5792C146.913 61.9202 147.601 62.0907 148.237 62.0907C149.06 62.0907 149.471 61.8425 149.471 61.3461C149.471 61.187 149.425 61.0544 149.334 60.9483C149.243 60.8422 149.094 60.7323 148.885 60.6187C148.677 60.505 148.387 60.3762 148.016 60.2322C147.292 59.9518 146.801 59.6714 146.544 59.3911C146.29 59.1107 146.163 58.7469 146.163 58.2999C146.163 57.7618 146.379 57.3451 146.811 57.0495C147.247 56.7502 147.838 56.6005 148.584 56.6005C149.323 56.6005 150.022 56.7502 150.681 57.0495L150.249 58.0555C149.571 57.7751 149.001 57.6349 148.539 57.6349C147.834 57.6349 147.481 57.8357 147.481 58.2373C147.481 58.4344 147.572 58.6011 147.754 58.7375C147.94 58.8739 148.342 59.0614 148.959 59.3001C149.478 59.5009 149.855 59.6847 150.09 59.8514C150.325 60.0181 150.499 60.2114 150.613 60.4311C150.727 60.6471 150.783 60.9066 150.783 61.2097Z" fill="#455D73"/>
<path fill-rule="evenodd" clip-rule="evenodd" d="M73.5 35.9231L70.6154 29.0962H71.8975L73.5001 32.2821L75.1026 29.0962H76.3846L73.5 35.9231ZM73.5927 29.0001C73.2072 29.0001 72.8947 29.3445 72.8947 29.7693C72.8947 30.1941 73.2072 30.5385 73.5927 30.5385C73.9781 30.5385 74.2906 30.1941 74.2906 29.7693C74.2906 29.3445 73.9781 29.0001 73.5927 29.0001ZM66.0962 39.3846L72.9231 36.5L66.0962 33.6154V34.8974L69.2822 36.5L66.0962 38.1026V39.3846ZM66.7692 37.1054C66.3444 37.1054 66 36.7929 66 36.4074C66 36.0219 66.3444 35.7094 66.7692 35.7094C67.1941 35.7094 67.5385 36.0219 67.5385 36.4074C67.5385 36.7929 67.1941 37.1054 66.7692 37.1054ZM76.3845 43.9038L73.4999 37.0769L70.6153 43.9038H71.8973L73.4998 40.718L75.1024 43.9038H76.3845ZM74.1053 43.2308C74.1053 43.6556 73.7928 44 73.4073 44C73.0218 44 72.7093 43.6556 72.7093 43.2308C72.7093 42.8059 73.0218 42.4615 73.4073 42.4615C73.7928 42.4615 74.1053 42.8059 74.1053 43.2308ZM80.9038 33.6154L74.0768 36.5L80.9038 39.3846V38.1027L77.7177 36.5L80.9038 34.8974V33.6154ZM80.2307 35.8947C80.6556 35.8947 80.9999 36.2072 80.9999 36.5927C80.9999 36.9782 80.6556 37.2907 80.2307 37.2907C79.8059 37.2907 79.4615 36.9782 79.4615 36.5927C79.4615 36.2072 79.8059 35.8947 80.2307 35.8947Z" fill="#F26D3D"/>
</svg>
