<svg width="187" height="76" viewBox="0 0 187 76" fill="none" xmlns="http://www.w3.org/2000/svg">
<path d="M51.6035 30.1973H52.5C53.3379 30.1973 53.9648 30.0332 54.3809 29.7051C54.7969 29.3711 55.0049 28.8877 55.0049 28.2549C55.0049 27.6162 54.8291 27.1445 54.4775 26.8398C54.1318 26.5352 53.5869 26.3828 52.8428 26.3828H51.6035V30.1973ZM57.7559 28.1582C57.7559 29.541 57.3223 30.5986 56.4551 31.3311C55.5938 32.0635 54.3662 32.4297 52.7725 32.4297H51.6035V37H48.8789V24.1504H52.9834C54.542 24.1504 55.7256 24.4873 56.5342 25.1611C57.3486 25.8291 57.7559 26.8281 57.7559 28.1582ZM65.4551 26.9893C65.8184 26.9893 66.1201 27.0156 66.3604 27.0684L66.1582 29.582C65.9414 29.5234 65.6777 29.4941 65.3672 29.4941C64.5117 29.4941 63.8438 29.7139 63.3633 30.1533C62.8887 30.5928 62.6514 31.208 62.6514 31.999V37H59.9707V27.1738H62.001L62.3965 28.8262H62.5283C62.833 28.2754 63.2432 27.833 63.7588 27.499C64.2803 27.1592 64.8457 26.9893 65.4551 26.9893Z" fill="#455D73"/>
<path d="M84.0752 26.1738H87.0107L88.8652 31.7021C89.0234 32.1826 89.1318 32.751 89.1904 33.4072H89.2432C89.3076 32.8037 89.4336 32.2354 89.6211 31.7021L91.4404 26.1738H94.3145L90.1572 37.2568C89.7764 38.2822 89.2314 39.0498 88.5225 39.5596C87.8193 40.0693 86.9961 40.3242 86.0527 40.3242C85.5898 40.3242 85.1357 40.2744 84.6904 40.1748V38.0479C85.0127 38.124 85.3643 38.1621 85.7451 38.1621C86.2197 38.1621 86.6328 38.0156 86.9844 37.7227C87.3418 37.4355 87.6201 36.999 87.8193 36.4131L87.9775 35.9297L84.0752 26.1738ZM99.7988 27.8965C99.2305 27.8965 98.7852 28.0781 98.4629 28.4414C98.1406 28.7988 97.9561 29.3086 97.9092 29.9707H101.671C101.659 29.3086 101.486 28.7988 101.152 28.4414C100.818 28.0781 100.367 27.8965 99.7988 27.8965ZM100.177 36.1758C98.5947 36.1758 97.3584 35.7393 96.4678 34.8662C95.5771 33.9932 95.1318 32.7568 95.1318 31.1572C95.1318 29.5107 95.542 28.2393 96.3623 27.3428C97.1885 26.4404 98.3281 25.9893 99.7812 25.9893C101.17 25.9893 102.251 26.3848 103.024 27.1758C103.798 27.9668 104.185 29.0596 104.185 30.4541V31.7549H97.8477C97.877 32.5166 98.1025 33.1113 98.5244 33.5391C98.9463 33.9668 99.5381 34.1807 100.3 34.1807C100.892 34.1807 101.451 34.1191 101.979 33.9961C102.506 33.873 103.057 33.6768 103.631 33.4072V35.4814C103.162 35.7158 102.661 35.8887 102.128 36C101.595 36.1172 100.944 36.1758 100.177 36.1758ZM110.354 36.1758C107.296 36.1758 105.767 34.4971 105.767 31.1396C105.767 29.4697 106.183 28.1953 107.015 27.3164C107.847 26.4316 109.039 25.9893 110.592 25.9893C111.729 25.9893 112.748 26.2119 113.65 26.6572L112.859 28.7314C112.438 28.5615 112.045 28.4238 111.682 28.3184C111.318 28.207 110.955 28.1514 110.592 28.1514C109.197 28.1514 108.5 29.1416 108.5 31.1221C108.5 33.0439 109.197 34.0049 110.592 34.0049C111.107 34.0049 111.585 33.9375 112.024 33.8027C112.464 33.6621 112.903 33.4453 113.343 33.1523V35.4463C112.909 35.7217 112.47 35.9121 112.024 36.0176C111.585 36.123 111.028 36.1758 110.354 36.1758ZM119.768 34.04C120.236 34.04 120.799 33.9375 121.455 33.7324V35.7275C120.787 36.0264 119.967 36.1758 118.994 36.1758C117.922 36.1758 117.14 35.9062 116.647 35.3672C116.161 34.8223 115.918 34.0078 115.918 32.9238V28.1865H114.635V27.0527L116.111 26.1562L116.885 24.082H118.599V26.1738H121.35V28.1865H118.599V32.9238C118.599 33.3047 118.704 33.5859 118.915 33.7676C119.132 33.9492 119.416 34.04 119.768 34.04ZM129.69 36L129.172 34.6641H129.102C128.65 35.2324 128.185 35.6279 127.704 35.8506C127.229 36.0674 126.608 36.1758 125.841 36.1758C124.897 36.1758 124.153 35.9062 123.608 35.3672C123.069 34.8281 122.8 34.0605 122.8 33.0645C122.8 32.0215 123.163 31.2539 123.89 30.7617C124.622 30.2637 125.724 29.9883 127.194 29.9355L128.899 29.8828V29.4521C128.899 28.4561 128.39 27.958 127.37 27.958C126.585 27.958 125.662 28.1953 124.602 28.6699L123.714 26.8594C124.845 26.2676 126.099 25.9717 127.476 25.9717C128.794 25.9717 129.805 26.2588 130.508 26.833C131.211 27.4072 131.562 28.2803 131.562 29.4521V36H129.69ZM128.899 31.4473L127.862 31.4824C127.083 31.5059 126.503 31.6465 126.122 31.9043C125.741 32.1621 125.551 32.5547 125.551 33.082C125.551 33.8379 125.984 34.2158 126.852 34.2158C127.473 34.2158 127.968 34.0371 128.337 33.6797C128.712 33.3223 128.899 32.8477 128.899 32.2559V31.4473Z" fill="#455D73"/>
<path d="M38.3205 52.203C38.3205 53.0706 38.0363 53.7356 37.468 54.1978C36.8996 54.6601 36.0907 54.8912 35.0412 54.8912H34.1773V58H32.819V49.6909H35.2117C36.2498 49.6909 37.0266 49.9031 37.5418 50.3275C38.0609 50.7518 38.3205 51.377 38.3205 52.203ZM34.1773 53.7488H34.8991C35.5962 53.7488 36.1077 53.6276 36.4336 53.3851C36.7594 53.1426 36.9224 52.7637 36.9224 52.2484C36.9224 51.771 36.7765 51.4149 36.4847 51.18C36.193 50.945 35.7383 50.8276 35.1207 50.8276H34.1773V53.7488ZM45.4133 54.8457C45.4133 55.8725 45.15 56.6739 44.6233 57.2498C44.0967 57.8257 43.3635 58.1137 42.4239 58.1137C41.8366 58.1137 41.3175 57.9811 40.8666 57.7158C40.4157 57.4506 40.069 57.0698 39.8266 56.5735C39.5841 56.0771 39.4628 55.5012 39.4628 54.8457C39.4628 53.8265 39.7243 53.0308 40.2471 52.4587C40.77 51.8866 41.5069 51.6005 42.458 51.6005C43.3673 51.6005 44.0872 51.8942 44.6176 52.4815C45.1481 53.0649 45.4133 53.853 45.4133 54.8457ZM40.8382 54.8457C40.8382 56.2969 41.3743 57.0225 42.4466 57.0225C43.5075 57.0225 44.0379 56.2969 44.0379 54.8457C44.0379 53.4097 43.5037 52.6917 42.4352 52.6917C41.8745 52.6917 41.4672 52.8774 41.2133 53.2487C40.9632 53.62 40.8382 54.1524 40.8382 54.8457ZM49.295 57.0338C49.6209 57.0338 49.9467 56.9827 50.2726 56.8804V57.8863C50.1248 57.9507 49.9335 58.0038 49.6986 58.0455C49.4674 58.0909 49.2268 58.1137 48.9768 58.1137C47.7113 58.1137 47.0785 57.4468 47.0785 56.1131V52.7258H46.2203V52.1348L47.1411 51.646L47.5957 50.3161H48.4198V51.7142H50.2101V52.7258H48.4198V56.0904C48.4198 56.4124 48.4994 56.6511 48.6585 56.8065C48.8214 56.958 49.0336 57.0338 49.295 57.0338ZM54.2794 58.1137C53.3018 58.1137 52.5365 57.8295 51.9833 57.2612C51.4339 56.689 51.1592 55.9028 51.1592 54.9026C51.1592 53.8758 51.4149 53.0687 51.9264 52.4815C52.4379 51.8942 53.1408 51.6005 54.035 51.6005C54.8647 51.6005 55.5202 51.8525 56.0014 52.3564C56.4826 52.8603 56.7232 53.5537 56.7232 54.4365V55.1583H52.5346C52.5535 55.7683 52.7183 56.2382 53.029 56.5678C53.3397 56.8936 53.7773 57.0566 54.3419 57.0566C54.7132 57.0566 55.058 57.0225 55.3762 56.9543C55.6983 56.8823 56.0431 56.7648 56.4106 56.6019V57.6874C56.0848 57.8428 55.7551 57.9526 55.4217 58.0171C55.0883 58.0815 54.7075 58.1137 54.2794 58.1137ZM54.035 52.6122C53.6106 52.6122 53.2696 52.7467 53.012 53.0157C52.7581 53.2847 52.6066 53.6769 52.5573 54.1921H55.4103C55.4028 53.6731 55.2777 53.2809 55.0352 53.0157C54.7928 52.7467 54.4593 52.6122 54.035 52.6122ZM63.7706 58H62.4293V54.1353C62.4293 53.6503 62.3308 53.2885 62.1338 53.0498C61.9405 52.8111 61.6317 52.6917 61.2074 52.6917C60.6428 52.6917 60.2298 52.8584 59.9684 53.1919C59.707 53.5253 59.5763 54.0842 59.5763 54.8685V58H58.2407V51.7142H59.2864L59.474 52.5383H59.5422C59.7316 52.239 60.0006 52.0078 60.3492 51.8449C60.6978 51.682 61.0842 51.6005 61.5086 51.6005C63.0166 51.6005 63.7706 52.3678 63.7706 53.9023V58ZM68.1638 58.1137C67.2128 58.1137 66.4891 57.8371 65.9928 57.2839C65.5002 56.7269 65.2539 55.9294 65.2539 54.8912C65.2539 53.8341 65.5116 53.0214 66.0269 52.453C66.546 51.8847 67.2943 51.6005 68.2718 51.6005C68.9349 51.6005 69.5316 51.7237 70.0621 51.9699L69.6585 53.0441C69.094 52.8243 68.628 52.7145 68.2604 52.7145C67.173 52.7145 66.6293 53.4363 66.6293 54.8798C66.6293 55.5846 66.7638 56.115 67.0328 56.4712C67.3056 56.8235 67.7035 56.9997 68.2263 56.9997C68.8212 56.9997 69.3839 56.852 69.9143 56.5564V57.7215C69.6756 57.8617 69.4198 57.9621 69.147 58.0227C68.878 58.0834 68.5503 58.1137 68.1638 58.1137ZM72.7276 58H71.392V51.7142H72.7276V58ZM71.3124 50.049C71.3124 49.8103 71.3768 49.6265 71.5056 49.4977C71.6383 49.3689 71.8258 49.3044 72.0683 49.3044C72.3032 49.3044 72.4851 49.3689 72.6139 49.4977C72.7465 49.6265 72.8128 49.8103 72.8128 50.049C72.8128 50.2763 72.7465 50.4563 72.6139 50.5889C72.4851 50.7177 72.3032 50.7821 72.0683 50.7821C71.8258 50.7821 71.6383 50.7177 71.5056 50.5889C71.3768 50.4563 71.3124 50.2763 71.3124 50.049ZM78.5758 58L78.3086 57.1248H78.2632C77.9601 57.5074 77.655 57.7689 77.3481 57.9091C77.0412 58.0455 76.6472 58.1137 76.166 58.1137C75.5484 58.1137 75.0653 57.947 74.7167 57.6135C74.372 57.2801 74.1996 56.8084 74.1996 56.1984C74.1996 55.5505 74.4402 55.0617 74.9213 54.7321C75.4025 54.4024 76.1357 54.2225 77.1208 54.1921L78.2063 54.158V53.8227C78.2063 53.4211 78.1116 53.1218 77.9222 52.9248C77.7365 52.7239 77.4467 52.6235 77.0526 52.6235C76.7306 52.6235 76.4218 52.6709 76.1262 52.7656C75.8307 52.8603 75.5465 52.9721 75.2737 53.1009L74.8418 52.1461C75.1828 51.9681 75.556 51.8335 75.9614 51.7426C76.3668 51.6479 76.7495 51.6005 77.1094 51.6005C77.9089 51.6005 78.5113 51.7748 78.9168 52.1234C79.326 52.472 79.5306 53.0195 79.5306 53.7659V58H78.5758ZM76.5866 57.0907C77.0716 57.0907 77.4599 56.9562 77.7517 56.6871C78.0472 56.4143 78.195 56.0336 78.195 55.5448V54.9992L77.3879 55.0333C76.759 55.056 76.3005 55.1621 76.0126 55.3516C75.7284 55.5372 75.5863 55.8233 75.5863 56.2097C75.5863 56.4901 75.6697 56.708 75.8364 56.8633C76.0031 57.0149 76.2531 57.0907 76.5866 57.0907ZM82.7303 58H81.3947V49.1567H82.7303V58ZM87.3907 58.1137C86.4131 58.1137 85.6478 57.8295 85.0946 57.2612C84.5452 56.689 84.2705 55.9028 84.2705 54.9026C84.2705 53.8758 84.5262 53.0687 85.0377 52.4815C85.5492 51.8942 86.2521 51.6005 87.1463 51.6005C87.976 51.6005 88.6315 51.8525 89.1127 52.3564C89.5939 52.8603 89.8345 53.5537 89.8345 54.4365V55.1583H85.6459C85.6648 55.7683 85.8296 56.2382 86.1403 56.5678C86.451 56.8936 86.8886 57.0566 87.4532 57.0566C87.8245 57.0566 88.1693 57.0225 88.4875 56.9543C88.8096 56.8823 89.1544 56.7648 89.5219 56.6019V57.6874C89.1961 57.8428 88.8664 57.9526 88.533 58.0171C88.1996 58.0815 87.8188 58.1137 87.3907 58.1137ZM87.1463 52.6122C86.7219 52.6122 86.3809 52.7467 86.1233 53.0157C85.8694 53.2847 85.7178 53.6769 85.6686 54.1921H88.5216C88.5141 53.6731 88.389 53.2809 88.1465 53.0157C87.904 52.7467 87.5706 52.6122 87.1463 52.6122ZM95.5747 56.2097C95.5747 56.8235 95.3512 57.2953 94.9041 57.6249C94.457 57.9507 93.8166 58.1137 92.9831 58.1137C92.1457 58.1137 91.4732 57.9867 90.9655 57.7329V56.5792C91.7043 56.9202 92.392 57.0907 93.0286 57.0907C93.8507 57.0907 94.2618 56.8425 94.2618 56.3461C94.2618 56.187 94.2164 56.0544 94.1254 55.9483C94.0345 55.8422 93.8848 55.7323 93.6765 55.6187C93.4681 55.505 93.1782 55.3762 92.8069 55.2322C92.0832 54.9518 91.5926 54.6714 91.3349 54.3911C91.0811 54.1107 90.9541 53.7469 90.9541 53.2999C90.9541 52.7618 91.1701 52.3451 91.602 52.0495C92.0378 51.7502 92.6288 51.6005 93.3752 51.6005C94.1141 51.6005 94.8131 51.7502 95.4724 52.0495L95.0405 53.0555C94.3623 52.7751 93.792 52.6349 93.3298 52.6349C92.625 52.6349 92.2727 52.8357 92.2727 53.2373C92.2727 53.4344 92.3636 53.6011 92.5455 53.7375C92.7311 53.8739 93.1327 54.0614 93.7503 54.3001C94.2694 54.5009 94.6464 54.6847 94.8813 54.8514C95.1162 55.0181 95.2905 55.2114 95.4042 55.4311C95.5179 55.6471 95.5747 55.9066 95.5747 56.2097Z" fill="#F26D3D"/>
<path d="M106.743 58H105.379V54.2547H101.548V58H100.19V49.6909H101.548V53.0896H105.379V49.6909H106.743V58ZM113.222 58L113.034 57.1759H112.966C112.78 57.4677 112.515 57.6969 112.17 57.8636C111.829 58.0303 111.439 58.1137 110.999 58.1137C110.238 58.1137 109.669 57.9242 109.294 57.5453C108.919 57.1664 108.732 56.5924 108.732 55.8233V51.7142H110.079V55.5903C110.079 56.0714 110.177 56.4333 110.374 56.6758C110.571 56.9145 110.88 57.0338 111.301 57.0338C111.861 57.0338 112.272 56.8671 112.534 56.5337C112.799 56.1965 112.932 55.6338 112.932 54.8457V51.7142H114.273V58H113.222ZM121.474 58H120.133V54.1239C120.133 53.6428 120.042 53.2847 119.86 53.0498C119.678 52.8111 119.394 52.6917 119.007 52.6917C118.492 52.6917 118.113 52.8603 117.871 53.1976C117.632 53.531 117.512 54.0879 117.512 54.8685V58H116.177V51.7142H117.223L117.41 52.5383H117.478C117.653 52.239 117.905 52.0078 118.234 51.8449C118.568 51.682 118.933 51.6005 119.331 51.6005C120.297 51.6005 120.938 51.9302 121.252 52.5894H121.343C121.529 52.2787 121.79 52.0363 122.127 51.862C122.465 51.6877 122.851 51.6005 123.287 51.6005C124.037 51.6005 124.583 51.79 124.924 52.1689C125.268 52.5478 125.441 53.1256 125.441 53.9023V58H124.105V54.1239C124.105 53.6428 124.012 53.2847 123.827 53.0498C123.645 52.8111 123.361 52.6917 122.974 52.6917C122.455 52.6917 122.074 52.8547 121.832 53.1805C121.593 53.5026 121.474 53.9989 121.474 54.6695V58ZM131.238 58L130.971 57.1248H130.925C130.622 57.5074 130.317 57.7689 130.01 57.9091C129.703 58.0455 129.309 58.1137 128.828 58.1137C128.21 58.1137 127.727 57.947 127.379 57.6135C127.034 57.2801 126.862 56.8084 126.862 56.1984C126.862 55.5505 127.102 55.0617 127.583 54.7321C128.065 54.4024 128.798 54.2225 129.783 54.1921L130.868 54.158V53.8227C130.868 53.4211 130.774 53.1218 130.584 52.9248C130.399 52.7239 130.109 52.6235 129.715 52.6235C129.393 52.6235 129.084 52.6709 128.788 52.7656C128.493 52.8603 128.209 52.9721 127.936 53.1009L127.504 52.1461C127.845 51.9681 128.218 51.8335 128.623 51.7426C129.029 51.6479 129.412 51.6005 129.772 51.6005C130.571 51.6005 131.173 51.7748 131.579 52.1234C131.988 52.472 132.193 53.0195 132.193 53.7659V58H131.238ZM129.249 57.0907C129.734 57.0907 130.122 56.9562 130.414 56.6871C130.709 56.4143 130.857 56.0336 130.857 55.5448V54.9992L130.05 55.0333C129.421 55.056 128.963 55.1621 128.675 55.3516C128.39 55.5372 128.248 55.8233 128.248 56.2097C128.248 56.4901 128.332 56.708 128.498 56.8633C128.665 57.0149 128.915 57.0907 129.249 57.0907ZM139.587 58H138.245V54.1353C138.245 53.6503 138.147 53.2885 137.95 53.0498C137.757 52.8111 137.448 52.6917 137.023 52.6917C136.459 52.6917 136.046 52.8584 135.785 53.1919C135.523 53.5253 135.392 54.0842 135.392 54.8685V58H134.057V51.7142H135.103L135.29 52.5383H135.358C135.548 52.239 135.817 52.0078 136.165 51.8449C136.514 51.682 136.9 51.6005 137.325 51.6005C138.833 51.6005 139.587 52.3678 139.587 53.9023V58ZM147.021 54.8457C147.021 55.8725 146.757 56.6739 146.231 57.2498C145.704 57.8257 144.971 58.1137 144.031 58.1137C143.444 58.1137 142.925 57.9811 142.474 57.7158C142.023 57.4506 141.676 57.0698 141.434 56.5735C141.191 56.0771 141.07 55.5012 141.07 54.8457C141.07 53.8265 141.331 53.0308 141.854 52.4587C142.377 51.8866 143.114 51.6005 144.065 51.6005C144.975 51.6005 145.694 51.8942 146.225 52.4815C146.755 53.0649 147.021 53.853 147.021 54.8457ZM142.445 54.8457C142.445 56.2969 142.982 57.0225 144.054 57.0225C145.115 57.0225 145.645 56.2969 145.645 54.8457C145.645 53.4097 145.111 52.6917 144.042 52.6917C143.482 52.6917 143.074 52.8774 142.821 53.2487C142.57 53.62 142.445 54.1524 142.445 54.8457ZM152.783 56.2097C152.783 56.8235 152.56 57.2953 152.113 57.6249C151.666 57.9507 151.025 58.1137 150.192 58.1137C149.355 58.1137 148.682 57.9867 148.174 57.7329V56.5792C148.913 56.9202 149.601 57.0907 150.237 57.0907C151.06 57.0907 151.471 56.8425 151.471 56.3461C151.471 56.187 151.425 56.0544 151.334 55.9483C151.243 55.8422 151.094 55.7323 150.885 55.6187C150.677 55.505 150.387 55.3762 150.016 55.2322C149.292 54.9518 148.801 54.6714 148.544 54.3911C148.29 54.1107 148.163 53.7469 148.163 53.2999C148.163 52.7618 148.379 52.3451 148.811 52.0495C149.247 51.7502 149.838 51.6005 150.584 51.6005C151.323 51.6005 152.022 51.7502 152.681 52.0495L152.249 53.0555C151.571 52.7751 151.001 52.6349 150.539 52.6349C149.834 52.6349 149.481 52.8357 149.481 53.2373C149.481 53.4344 149.572 53.6011 149.754 53.7375C149.94 53.8739 150.342 54.0614 150.959 54.3001C151.478 54.5009 151.855 54.6847 152.09 54.8514C152.325 55.0181 152.499 55.2114 152.613 55.4311C152.727 55.6471 152.783 55.9066 152.783 56.2097Z" fill="#455D73"/>
<path fill-rule="evenodd" clip-rule="evenodd" d="M81.5276 29.0628C80.4276 27.7989 78.8071 27 77 27C73.6863 27 71 29.6863 71 33C71 34.8071 71.7989 36.4276 73.0628 37.5276C70.6805 36.5635 69 34.228 69 31.5C69 27.9101 71.9101 25 75.5 25C78.228 25 80.5635 26.6805 81.5276 29.0628ZM71 26C71 26.5523 70.5523 27 70 27C69.4477 27 69 26.5523 69 26C69 25.4477 69.4477 25 70 25C70.5523 25 71 25.4477 71 26ZM72.0702 34.7046C72.9014 35.7243 74.1443 36.3845 75.5456 36.415C78.1153 36.4711 80.2449 34.3889 80.3021 31.7643C80.3334 30.3329 79.7419 29.0359 78.7808 28.1433C80.6115 28.9472 81.8743 30.8255 81.8272 32.9862C81.7651 35.8295 79.4581 38.0853 76.6743 38.0245C74.5588 37.9784 72.7768 36.6078 72.0702 34.7046ZM77.2819 34.5195C77.2914 34.082 77.6464 33.735 78.0747 33.7443C78.5029 33.7537 78.8424 34.1159 78.8328 34.5533C78.8233 34.9907 78.4684 35.3378 78.0401 35.3284C77.6118 35.3191 77.2724 34.9569 77.2819 34.5195Z" fill="#F26D3D"/>
</svg>
