<svg width="320" height="9" viewBox="0 0 320 9" fill="none" xmlns="http://www.w3.org/2000/svg">
<path fill-rule="evenodd" clip-rule="evenodd" d="M164.117 2.80717C163.357 1.93388 162.238 1.38188 160.989 1.38188C158.699 1.38188 156.843 3.23795 156.843 5.52752C156.843 6.77612 157.395 7.8958 158.269 8.65584C156.623 7.98964 155.461 6.37598 155.461 4.49111C155.461 2.01074 157.472 0 159.953 0C161.837 0 163.451 1.16115 164.117 2.80717ZM156.843 0.69094C156.843 1.07254 156.534 1.38188 156.152 1.38188C155.771 1.38188 155.461 1.07254 155.461 0.69094C155.461 0.309344 155.771 0 156.152 0C156.534 0 156.843 0.309344 156.843 0.69094ZM157.583 6.70536C158.157 7.40986 159.016 7.86598 159.984 7.88711C161.76 7.92585 163.231 6.48716 163.271 4.6737C163.292 3.68473 162.883 2.78854 162.219 2.17177C163.484 2.72727 164.357 4.02504 164.324 5.51798C164.281 7.48256 162.687 9.04114 160.764 8.99917C159.302 8.96728 158.071 8.02032 157.583 6.70536ZM161.184 6.57736C161.19 6.27512 161.436 6.03534 161.732 6.0418C162.027 6.04825 162.262 6.2985 162.255 6.60075C162.249 6.90299 162.004 7.14277 161.708 7.13631C161.412 7.12986 161.177 6.87961 161.184 6.57736Z" fill="#F26D3D" fill-opacity="0.3"/>
<line y1="4.14567" x2="150.625" y2="4.14567" stroke="#F29441" stroke-opacity="0.15" stroke-width="1.38188"/>
<line x1="169.28" y1="4.14567" x2="319.905" y2="4.14567" stroke="#F29441" stroke-opacity="0.15" stroke-width="1.38188"/>
</svg>
