<svg width="33" height="33" viewBox="0 0 33 33" fill="none" xmlns="http://www.w3.org/2000/svg">
<path d="M23.8929 0H9.10656C4.0852 0 0 4.0854 0 9.10675V23.8931C0 28.9146 4.0852 32.9998 9.10656 32.9998H23.8929C28.9146 32.9998 32.9998 28.9144 32.9998 23.8931V9.10675C33 4.0854 28.9146 0 23.8929 0ZM30.0721 23.8931C30.0721 27.3002 27.3002 30.0719 23.8931 30.0719H9.10656C5.69965 30.0721 2.9279 27.3002 2.9279 23.8931V9.10675C2.9279 5.69984 5.69965 2.9279 9.10656 2.9279H23.8929C27.3 2.9279 30.0719 5.69984 30.0719 9.10675V23.8931H30.0721Z" fill="#F26D3D"/>
<path d="M16.4999 7.99707C11.8111 7.99707 7.99667 11.8115 7.99667 16.5003C7.99667 21.1888 11.8111 25.0031 16.4999 25.0031C21.1886 25.0031 25.0031 21.1888 25.0031 16.5003C25.0031 11.8115 21.1886 7.99707 16.4999 7.99707ZM16.4999 22.075C13.4258 22.075 10.9246 19.5742 10.9246 16.5001C10.9246 13.4258 13.4256 10.9248 16.4999 10.9248C19.5742 10.9248 22.0752 13.4258 22.0752 16.5001C22.0752 19.5742 19.574 22.075 16.4999 22.075Z" fill="#F26D3D"/>
<path d="M25.3597 5.5144C24.7956 5.5144 24.2415 5.74278 23.8431 6.14293C23.4427 6.54112 23.2126 7.09547 23.2126 7.66153C23.2126 8.22584 23.4429 8.77999 23.8431 9.18014C24.2413 9.57833 24.7956 9.80866 25.3597 9.80866C25.9258 9.80866 26.4782 9.57833 26.8784 9.18014C27.2785 8.77999 27.5069 8.22564 27.5069 7.66153C27.5069 7.09547 27.2785 6.54112 26.8784 6.14293C26.4802 5.74278 25.9258 5.5144 25.3597 5.5144Z" fill="#F26D3D"/>
</svg>
