<svg width="33" height="33" viewBox="0 0 33 33" fill="none" xmlns="http://www.w3.org/2000/svg">
<path d="M8.53098 9.77267H2.96786C2.34423 9.77267 1.83691 10.28 1.83691 10.9036V31.8692C1.83691 32.4926 2.34423 32.9999 2.96786 32.9999H8.53098C9.15436 32.9999 9.66167 32.4926 9.66167 31.8692V10.9036C9.66167 10.28 9.15436 9.77267 8.53098 9.77267ZM7.72531 31.0636H3.77328V11.709H7.72531V31.0636Z" fill="#F26D3D"/>
<path d="M5.74942 0C3.57413 0 1.80469 1.76944 1.80469 3.94447C1.80469 6.11976 3.57413 7.8892 5.74942 7.8892C7.92421 7.8892 9.6939 6.11976 9.6939 3.94447C9.6939 1.76944 7.92446 0 5.74942 0ZM5.74942 5.95284C4.64188 5.95284 3.74105 5.05201 3.74105 3.94447C3.74105 2.83719 4.64188 1.93636 5.74942 1.93636C6.8567 1.93636 7.75754 2.83719 7.75754 3.94447C7.75754 5.05176 6.8567 5.95284 5.74942 5.95284Z" fill="#F26D3D"/>
<path d="M27.6534 12.2307C26.3236 11.1207 24.6329 10.527 22.8947 10.5592C21.8151 10.5791 20.7602 10.8394 19.8042 11.3108V10.853C19.8042 10.2566 19.3206 9.77295 18.7242 9.77295H13.0598C12.4634 9.77295 11.9797 10.2566 11.9797 10.853V31.9199C11.9797 32.5166 12.4634 32.9999 13.0598 32.9999H18.8359C19.3707 32.9999 19.8042 32.5664 19.8042 32.0319V19.4714C19.8042 18.3961 20.6457 17.4862 21.7202 17.4542C22.8371 17.4212 23.756 18.3198 23.756 19.4293V32.052C23.756 32.5755 24.1805 32.9999 24.7039 32.9999H30.2552C30.7786 32.9999 31.2031 32.5755 31.2031 32.052V19.8133C31.2031 16.8776 29.9093 14.1137 27.6534 12.2307ZM29.2668 31.0636H25.6926V19.4293C25.6926 17.2722 23.9376 15.5171 21.7801 15.5171C19.623 15.5171 17.8679 17.2722 17.8679 19.4293V31.0636H13.9161V11.7091H17.8679V13.1162H17.8691C17.8689 13.3443 17.9482 13.5734 18.1113 13.758C18.4656 14.1583 19.0776 14.1955 19.478 13.841C20.4319 12.9966 21.658 12.5187 22.9305 12.4951C24.2042 12.4709 25.4404 12.9055 26.4127 13.7172C28.2267 15.2313 29.2668 17.4532 29.2668 19.8133V31.0636Z" fill="#F26D3D"/>
</svg>
