<svg width="27" height="26" viewBox="0 0 27 26" fill="none" xmlns="http://www.w3.org/2000/svg">
<g clip-path="url(#clip0)">
<path d="M13.5796 -0.000244141C8.56274 -0.000244141 4.4812 4.0813 4.4812 9.09815C4.4812 10.7932 4.95073 12.4474 5.83934 13.8825L13.0617 25.5212C13.2 25.7442 13.4438 25.8796 13.7059 25.8796C13.7079 25.8796 13.7099 25.8796 13.7119 25.8796C13.9763 25.8776 14.2206 25.7379 14.3564 25.5111L21.3947 13.7596C22.2342 12.3548 22.678 10.7429 22.678 9.09815C22.678 4.0813 18.5965 -0.000244141 13.5796 -0.000244141ZM20.0933 12.981L13.6944 23.665L7.12818 13.0836C6.38853 11.889 5.98749 10.5109 5.98749 9.09815C5.98749 4.91744 9.39888 1.50605 13.5796 1.50605C17.7603 1.50605 21.1666 4.91744 21.1666 9.09815C21.1666 10.469 20.792 11.8119 20.0933 12.981Z" fill="#F29441"/>
<path d="M13.5796 4.54919C11.0712 4.54919 9.0304 6.58996 9.0304 9.09839C9.0304 11.5908 11.038 13.6476 13.5796 13.6476C16.1526 13.6476 18.1288 11.5634 18.1288 9.09839C18.1288 6.58996 16.088 4.54919 13.5796 4.54919ZM13.5796 12.1413C11.8986 12.1413 10.5367 10.7749 10.5367 9.09839C10.5367 7.42611 11.9073 6.05548 13.5796 6.05548C15.2519 6.05548 16.6174 7.42611 16.6174 9.09839C16.6174 10.7504 15.2873 12.1413 13.5796 12.1413Z" fill="#F29441"/>
</g>
<defs>
<clipPath id="clip0">
<rect width="25.8799" height="25.8799" fill="white" transform="translate(0.639648 -0.000244141)"/>
</clipPath>
</defs>
</svg>
