<svg width="26" height="26" viewBox="0 0 26 26" fill="none" xmlns="http://www.w3.org/2000/svg">
<g clip-path="url(#clip0)">
<path d="M25.2141 8.14431C24.3273 7.25742 22.8842 7.25747 21.9971 8.14451C21.7242 8.41761 19.9821 10.1611 19.716 10.4275V4.41897C19.716 3.8114 19.4794 3.24022 19.0497 2.81063L16.9053 0.666083C16.4757 0.236436 15.9045 -0.00012207 15.2969 -0.00012207H2.27741C1.02319 -0.00012207 0.00280762 1.02026 0.00280762 2.27448V23.6052C0.00280762 24.8594 1.02319 25.8798 2.27741 25.8798H17.4414C18.6956 25.8798 19.716 24.8594 19.716 23.6052V16.8638L25.2141 11.3611C26.103 10.4722 26.1032 9.03332 25.2141 8.14431ZM15.1669 1.51628C15.3101 1.51628 15.5861 1.49146 15.8331 1.73833L17.9775 3.88287C18.2181 4.12352 18.1996 4.38723 18.1996 4.54908H15.1669V1.51628ZM18.1996 23.6052C18.1996 24.0232 17.8595 24.3634 17.4414 24.3634H2.27741C1.85934 24.3634 1.51921 24.0232 1.51921 23.6052V2.27448C1.51921 1.85641 1.85934 1.51628 2.27741 1.51628H13.6504V5.30728C13.6504 5.726 13.9899 6.06548 14.4086 6.06548H18.1996V11.9452C18.1996 11.9452 15.9627 14.184 15.9626 14.1841L14.8909 15.2559C14.8077 15.3391 14.7449 15.4406 14.7077 15.5522L13.6354 18.769C13.5446 19.0415 13.6155 19.3419 13.8186 19.5449C14.0219 19.7483 14.3224 19.8188 14.5945 19.7281L17.8112 18.6558C17.9229 18.6186 18.0244 18.5559 18.1076 18.4727L18.1996 18.3807V23.6052ZM16.4992 15.792L17.5715 16.8643L17.1619 17.2738L15.5535 17.8099L16.0896 16.2015L16.4992 15.792ZM18.6435 15.7918L17.5713 14.7195C18.1422 14.1481 20.6781 11.61 21.2159 11.0718L22.2882 12.144L18.6435 15.7918ZM24.1416 10.2891L23.36 11.0713L22.2878 9.99907L23.0696 9.21655C23.3654 8.92091 23.8463 8.92096 24.1419 9.21655C24.4375 9.51225 24.439 9.99158 24.1416 10.2891Z" fill="#F29441"/>
<path d="M14.4067 7.58203H3.79189C3.37316 7.58203 3.03369 7.9215 3.03369 8.34023C3.03369 8.75896 3.37316 9.09843 3.79189 9.09843H14.4067C14.8254 9.09843 15.1649 8.75896 15.1649 8.34023C15.1649 7.9215 14.8254 7.58203 14.4067 7.58203Z" fill="#F29441"/>
<path d="M11.3739 10.6146H3.79189C3.37316 10.6146 3.03369 10.9541 3.03369 11.3728C3.03369 11.7916 3.37316 12.131 3.79189 12.131H11.3739C11.7926 12.131 12.1321 11.7916 12.1321 11.3728C12.1321 10.9541 11.7926 10.6146 11.3739 10.6146Z" fill="#F29441"/>
<path d="M11.3739 13.6473H3.79189C3.37316 13.6473 3.03369 13.9868 3.03369 14.4055C3.03369 14.8243 3.37316 15.1637 3.79189 15.1637H11.3739C11.7926 15.1637 12.1321 14.8243 12.1321 14.4055C12.1321 13.9868 11.7926 13.6473 11.3739 13.6473Z" fill="#F29441"/>
<path d="M11.3739 16.6804H3.79189C3.37316 16.6804 3.03369 17.0199 3.03369 17.4386C3.03369 17.8573 3.37316 18.1968 3.79189 18.1968H11.3739C11.7926 18.1968 12.1321 17.8573 12.1321 17.4386C12.1321 17.0199 11.7926 16.6804 11.3739 16.6804Z" fill="#F29441"/>
<path d="M14.4067 21.3308H9.8575C9.43878 21.3308 9.0993 21.6703 9.0993 22.089C9.0993 22.5077 9.43878 22.8472 9.8575 22.8472H14.4067C14.8254 22.8472 15.1649 22.5077 15.1649 22.089C15.1649 21.6703 14.8254 21.3308 14.4067 21.3308Z" fill="#F29441"/>
</g>
<defs>
<clipPath id="clip0">
<rect width="25.8799" height="25.8799" fill="white" transform="translate(0 -0.00012207)"/>
</clipPath>
</defs>
</svg>
