<svg width="33" height="33" viewBox="0 0 33 33" fill="none" xmlns="http://www.w3.org/2000/svg">
<g clip-path="url(#clip0)">
<path d="M18.728 32.9356H13.433C12.5486 32.9356 11.8291 32.2175 11.8291 31.3348V19.415H8.7399C7.85547 19.415 7.13602 18.6967 7.13602 17.8142V12.7066C7.13602 11.8239 7.85547 11.1058 8.7399 11.1058H11.8291V8.5481C11.8291 6.01202 12.627 3.85435 14.1363 2.30873C15.6524 0.756065 17.7712 -0.0644531 20.2635 -0.0644531L24.3017 -0.0579071C25.1847 -0.0563965 25.9029 0.661652 25.9029 1.54285V6.28519C25.9029 7.16789 25.1837 7.88594 24.2995 7.88594L21.5806 7.88695C20.7514 7.88695 20.5403 8.05287 20.4951 8.10372C20.4207 8.18807 20.3321 8.42649 20.3321 9.08487V11.1056H24.0951C24.3784 11.1056 24.6529 11.1753 24.8888 11.3067C25.3976 11.5905 25.7139 12.127 25.7139 12.7068L25.7119 17.8145C25.7119 18.6967 24.9924 19.4147 24.108 19.4147H20.3321V31.3348C20.3321 32.2175 19.6124 32.9356 18.728 32.9356ZM13.7675 31.0009H18.3935V18.5489C18.3935 17.9595 18.8741 17.4801 19.4644 17.4801H23.7735L23.7753 13.0404H19.4641C18.8738 13.0404 18.3935 12.5611 18.3935 11.9717V9.08487C18.3935 8.32906 18.4704 7.46951 19.0421 6.82347C19.7328 6.04248 20.8213 5.95235 21.5801 5.95235L23.9645 5.95134V1.87619L20.262 1.87015C16.2566 1.87015 13.7675 4.42914 13.7675 8.5481V11.9717C13.7675 12.5608 13.2872 13.0404 12.6969 13.0404H9.0744V17.4801H12.6969C13.2872 17.4801 13.7675 17.9595 13.7675 18.5489V31.0009ZM24.298 1.87669H24.2982H24.298Z" fill="#F26D3D"/>
</g>
<defs>
<clipPath id="clip0">
<rect width="33" height="33" fill="white"/>
</clipPath>
</defs>
</svg>
