<svg width="27" height="26" viewBox="0 0 27 26" fill="none" xmlns="http://www.w3.org/2000/svg">
<path d="M25.9784 19.0881L22.7612 15.8709C21.8742 14.9839 20.4309 14.9839 19.5439 15.8709L18.0816 17.3332C17.4096 18.0052 16.3162 18.005 15.6445 17.3335L9.30589 10.9895C8.63236 10.316 8.63226 9.22583 9.30589 8.5522C9.54144 8.31665 10.2178 7.64029 10.7683 7.08983C11.6514 6.20678 11.6637 4.76797 10.7674 3.87178L7.55101 0.665498C6.66402 -0.221445 5.22076 -0.221445 4.33614 0.663173C3.67418 1.31937 3.46067 1.53106 3.16386 1.82529C-0.0347376 5.02384 -0.0347379 10.2283 3.16371 13.4267L13.2069 23.4752C16.413 26.6813 21.6021 26.6816 24.8085 23.4752L25.9784 22.3053C26.8654 21.4183 26.8654 19.9751 25.9784 19.0881ZM5.40621 1.7379C5.70186 1.44225 6.18286 1.4422 6.47947 1.73871L9.69586 4.94498C9.99222 5.24134 9.99222 5.72098 9.69586 6.01738L9.15961 6.55358L4.87274 2.26672L5.40621 1.7379ZM14.2795 22.403L4.23626 12.3544C1.76159 9.87971 1.62557 5.99393 3.81793 3.35676L8.09237 7.63119C6.96922 8.90441 7.01603 10.8445 8.23324 12.0618L14.5716 18.4054C14.5717 18.4055 14.5718 18.4056 14.5718 18.4056C15.7877 19.6216 17.7277 19.6714 19.0025 18.5467L23.2771 22.8213C20.6483 25.0099 16.7712 24.8947 14.2795 22.403ZM24.9061 21.2329L24.3698 21.7692L20.0802 17.4795L20.6163 16.9433C20.912 16.6476 21.3931 16.6476 21.6888 16.9433L24.906 20.1605C25.2017 20.4562 25.2017 20.9373 24.9061 21.2329Z" fill="#F29441"/>
</svg>
