<svg width="55" height="55" viewBox="0 0 55 55" fill="none" xmlns="http://www.w3.org/2000/svg">
<circle cx="27.5" cy="27.5" r="27.5" fill="#F29441" fill-opacity="0.15"/>
<path d="M27.2648 26.8962C29.4487 26.8962 31.3395 26.113 32.8849 24.5676C34.4297 23.0225 35.2132 21.132 35.2132 18.9479C35.2132 16.7645 34.43 14.8737 32.8846 13.3281C31.3392 11.7833 29.4484 11 27.2648 11C25.0807 11 23.1902 11.7833 21.6451 13.3284C20.1 14.8735 19.3165 16.7643 19.3165 18.9479C19.3165 21.132 20.1 23.0227 21.6451 24.5679C23.1907 26.1127 25.0815 26.8962 27.2648 26.8962ZM23.0127 14.6957C24.1983 13.5101 25.5891 12.9338 27.2648 12.9338C28.9404 12.9338 30.3314 13.5101 31.5172 14.6957C32.7028 15.8816 33.2794 17.2726 33.2794 18.9479C33.2794 20.6236 32.7028 22.0144 31.5172 23.2002C30.3314 24.3861 28.9404 24.9624 27.2648 24.9624C25.5896 24.9624 24.1988 24.3858 23.0127 23.2002C21.8269 22.0147 21.2503 20.6236 21.2503 18.9479C21.2503 17.2726 21.8269 15.8816 23.0127 14.6957Z" fill="#F26D3D"/>
<path d="M41.1724 36.3753C41.1278 35.7323 41.0377 35.0309 40.905 34.2902C40.771 33.5439 40.5986 32.8385 40.3921 32.1937C40.1786 31.5273 39.8888 30.8691 39.5301 30.2385C39.1582 29.5839 38.7211 29.0139 38.2307 28.5448C37.7178 28.0541 37.0899 27.6596 36.3638 27.3718C35.6402 27.0855 34.8383 26.9405 33.9806 26.9405C33.6437 26.9405 33.3179 27.0788 32.6887 27.4884C32.3015 27.7409 31.8486 28.033 31.343 28.356C30.9107 28.6314 30.3251 28.8895 29.6018 29.1231C28.8961 29.3515 28.1795 29.4673 27.4721 29.4673C26.7651 29.4673 26.0485 29.3515 25.3423 29.1231C24.6198 28.8897 24.0339 28.6317 23.6023 28.3562C23.1016 28.0362 22.6484 27.7442 22.2554 27.4881C21.6267 27.0785 21.3009 26.9403 20.9641 26.9403C20.106 26.9403 19.3044 27.0855 18.581 27.3721C17.8554 27.6593 17.2273 28.0539 16.7139 28.5451C16.2235 29.0144 15.7864 29.5841 15.4148 30.2385C15.0565 30.8691 14.7665 31.527 14.553 32.194C14.3468 32.8387 14.1743 33.5439 14.0404 34.2902C13.9074 35.0299 13.8176 35.7316 13.773 36.3761C13.7292 37.0063 13.707 37.6621 13.707 38.3248C13.707 40.0474 14.2546 41.442 15.3345 42.4704C16.401 43.4853 17.8119 43.9999 19.5282 43.9999H35.4179C37.1337 43.9999 38.5446 43.4853 39.6114 42.4704C40.6915 41.4427 41.2391 40.0477 41.2391 38.3245C41.2388 37.6596 41.2164 37.0038 41.1724 36.3753ZM38.278 41.0693C37.5733 41.74 36.6377 42.0661 35.4177 42.0661H19.5282C18.3079 42.0661 17.3723 41.74 16.6678 41.0696C15.9767 40.4117 15.6409 39.5136 15.6409 38.3248C15.6409 37.7064 15.6613 37.0959 15.7021 36.5098C15.7418 35.9347 15.8232 35.3031 15.9438 34.6318C16.0628 33.9689 16.2144 33.3468 16.3947 32.7836C16.5676 32.2436 16.8036 31.7088 17.0961 31.1937C17.3753 30.7027 17.6966 30.2815 18.0511 29.9421C18.3827 29.6246 18.8006 29.3648 19.2931 29.1699C19.7485 28.9897 20.2604 28.891 20.816 28.8761C20.8837 28.9121 21.0043 28.9809 21.1997 29.1083C21.5973 29.3673 22.0555 29.6629 22.562 29.9864C23.133 30.3505 23.8687 30.6793 24.7477 30.9631C25.6462 31.2536 26.5627 31.4011 27.4723 31.4011C28.382 31.4011 29.2986 31.2536 30.1967 30.9633C31.0764 30.6791 31.8118 30.3505 32.3836 29.9859C32.902 29.6546 33.3474 29.3676 33.7449 29.1083C33.9403 28.9811 34.0609 28.9121 34.1286 28.8761C34.6845 28.891 35.1964 28.9897 35.6521 29.1699C36.1443 29.3648 36.5622 29.6249 36.8938 29.9421C37.2483 30.2813 37.5695 30.7025 37.8488 31.1939C38.1416 31.7088 38.3777 32.2438 38.5504 32.7833C38.731 33.3473 38.8828 33.9692 39.0016 34.6316C39.122 35.3041 39.2035 35.936 39.2433 36.51V36.5105C39.2843 37.0944 39.305 37.7047 39.3052 38.3248C39.305 39.5139 38.9691 40.4117 38.278 41.0693Z" fill="#F26D3D"/>
</svg>
